<?xml version="1.0" encoding="UTF-8" standalone="no"?><svg xmlns="http://www.w3.org/2000/svg" xmlns:xlink="http://www.w3.org/1999/xlink" contentScriptType="application/ecmascript" contentStyleType="text/css" height="623px" preserveAspectRatio="none" style="width:1169px;height:623px;background:#00000000;" version="1.1" viewBox="0 0 1169 623" width="1169px" zoomAndPan="magnify"><defs><filter height="300%" id="fejp6n79gk1v6" width="300%" x="-1" y="-1"><feGaussianBlur result="blurOut" stdDeviation="2.0"/><feColorMatrix in="blurOut" result="blurOut2" type="matrix" values="0 0 0 0 0 0 0 0 0 0 0 0 0 0 0 0 0 0 .4 0"/><feOffset dx="4.0" dy="4.0" in="blurOut2" result="blurOut3"/><feBlend in="SourceGraphic" in2="blurOut3" mode="normal"/></filter></defs><g><!--MD5=[c0bd9f44073f1a51428d87d6a9cf071b]
class Observable--><rect codeLine="7" fill="#2E2E2E" filter="url(#fejp6n79gk1v6)" height="107.9995" id="Observable" style="stroke:#1B1B1B;stroke-width:1.5;" width="401" x="296.5" y="267.5"/><ellipse cx="441.5" cy="280.5" fill="#A9DCDF" rx="8" ry="8" style="stroke:#1B1B1B;stroke-width:1.0;"/><path d="M443.375,282.2813 L440.1406,282.2813 L439.625,283.75 L437.5469,283.75 L440.5313,275.7344 L442.9844,275.7344 L445.9531,283.75 L443.875,283.75 L443.375,282.2813 Z M440.6563,280.7969 L442.8594,280.7969 L441.7656,277.6094 L440.6563,280.7969 Z " fill="#000000"/><text fill="#FFFFFF" font-family="Verdana" font-size="11" font-style="italic" lengthAdjust="spacing" textLength="65" x="457.5" y="284.3081">Observable</text><rect height="15.1999" style="stroke:#AAAAAA;stroke-width:1.0;fill:none;stroke-dasharray:2.0,2.0;" width="37" x="663.5" y="264.5"/><text fill="#AAAAAA" font-family="monospace" font-size="11" font-style="italic" lengthAdjust="spacing" textLength="35" x="664.5" y="276.0929">TData</text><line style="stroke:#1B1B1B;stroke-width:1.5;" x1="297.5" x2="696.5" y1="293.5" y2="293.5"/><rect fill="none" height="6" style="stroke:#C82930;stroke-width:1.0;" width="6" x="304.5" y="301.5"/><text fill="#AAAAAA" font-family="monospace" font-size="11" lengthAdjust="spacing" textLength="252" x="313.5" y="307.6859">#observers: TObserverMethod&lt;TData&gt;[]</text><line style="stroke:#1B1B1B;stroke-width:1.5;" x1="297.5" x2="696.5" y1="314.6999" y2="314.6999"/><ellipse cx="307.5" cy="325.6999" fill="#84BE84" rx="3" ry="3" style="stroke:#038048;stroke-width:1.0;"/><text fill="#AAAAAA" font-family="monospace" font-size="11" lengthAdjust="spacing" textLength="357" x="313.5" y="328.8858">addObserver(observer: TObserverMethod&lt;TData&gt;): void</text><ellipse cx="307.5" cy="338.8998" fill="#84BE84" rx="3" ry="3" style="stroke:#038048;stroke-width:1.0;"/><text fill="#AAAAAA" font-family="monospace" font-size="11" lengthAdjust="spacing" textLength="378" x="313.5" y="342.0857">removeObserver(observer: TObserverMethod&lt;TData&gt;): void</text><ellipse cx="307.5" cy="352.0997" fill="#84BE84" rx="3" ry="3" style="stroke:#038048;stroke-width:1.0;"/><text fill="#AAAAAA" font-family="monospace" font-size="11" lengthAdjust="spacing" textLength="196" x="313.5" y="355.2856">getObserverNames(): string[]</text><polygon fill="#FFFF44" points="307.5,360.2996,311.5,364.2996,307.5,368.2996,303.5,364.2996" style="stroke:#B38D22;stroke-width:1.0;"/><text fill="#AAAAAA" font-family="monospace" font-size="11" lengthAdjust="spacing" textLength="238" x="313.5" y="368.4855">notifyObservers(data: TData): void</text><!--MD5=[3de993ac3dd18e6abf686ebe9c2e07b2]
class Presenter--><rect codeLine="14" fill="#2E2E2E" filter="url(#fejp6n79gk1v6)" height="173.999" id="Presenter" style="stroke:#1B1B1B;stroke-width:1.5;" width="373" x="352.5" y="7"/><ellipse cx="508" cy="20" fill="#BB6600" rx="8" ry="8" style="stroke:#1B1B1B;stroke-width:1.0;"/><path d="M510.125,23.5625 Q509.5469,23.8594 508.9219,24 Q508.3125,24.1563 507.6406,24.1563 Q505.6406,24.1563 504.4688,23.0469 Q503.2969,21.9219 503.2969,20 Q503.2969,18.0781 504.4688,16.9531 Q505.6406,15.8281 507.6406,15.8281 Q508.3125,15.8281 508.9219,15.9844 Q509.5469,16.1406 510.125,16.4375 L510.125,18.0938 Q509.5469,17.7031 508.9844,17.5156 Q508.4219,17.3281 507.8125,17.3281 Q506.7031,17.3281 506.0625,18.0469 Q505.4375,18.75 505.4375,20 Q505.4375,21.2344 506.0625,21.9531 Q506.7031,22.6563 507.8125,22.6563 Q508.4219,22.6563 508.9844,22.4844 Q509.5469,22.2969 510.125,21.9063 L510.125,23.5625 Z " fill="#000000"/><text fill="#FFFFFF" font-family="Verdana" font-size="11" lengthAdjust="spacing" textLength="55" x="524" y="23.8081">Presenter</text><line style="stroke:#1B1B1B;stroke-width:1.5;" x1="353.5" x2="724.5" y1="33" y2="33"/><rect fill="none" height="6" style="stroke:#C82930;stroke-width:1.0;" width="6" x="360.5" y="41"/><text fill="#AAAAAA" font-family="monospace" font-size="11" lengthAdjust="spacing" textLength="140" x="369.5" y="47.1859">#parent: HTMLElement</text><rect fill="none" height="6" style="stroke:#C82930;stroke-width:1.0;" width="6" x="360.5" y="54.1999"/><text fill="#AAAAAA" font-family="monospace" font-size="11" lengthAdjust="spacing" textLength="98" x="369.5" y="60.3858">#props: IProps</text><rect fill="none" height="6" style="stroke:#C82930;stroke-width:1.0;" width="6" x="360.5" y="67.3998"/><text fill="#AAAAAA" font-family="monospace" font-size="11" lengthAdjust="spacing" textLength="189" x="369.5" y="73.5857">#state?: IState | undefined</text><rect fill="none" height="6" style="stroke:#C82930;stroke-width:1.0;" width="6" x="360.5" y="80.5997"/><text fill="#AAAAAA" font-family="monospace" font-size="11" lengthAdjust="spacing" textLength="182" x="369.5" y="86.7856">#model?: Model | undefined</text><rect fill="none" height="6" style="stroke:#C82930;stroke-width:1.0;" width="6" x="360.5" y="93.7996"/><text fill="#AAAAAA" font-family="monospace" font-size="11" lengthAdjust="spacing" textLength="168" x="369.5" y="99.9855">#view?: View | undefined</text><line style="stroke:#1B1B1B;stroke-width:1.5;" x1="353.5" x2="724.5" y1="106.9995" y2="106.9995"/><ellipse cx="363.5" cy="117.9995" fill="#84BE84" rx="3" ry="3" style="stroke:#038048;stroke-width:1.0;"/><text fill="#AAAAAA" font-family="monospace" font-size="11" lengthAdjust="spacing" textLength="105" x="369.5" y="121.1854">destroy(): void</text><ellipse cx="363.5" cy="131.1994" fill="#84BE84" rx="3" ry="3" style="stroke:#038048;stroke-width:1.0;"/><text fill="#AAAAAA" font-family="monospace" font-size="11" lengthAdjust="spacing" textLength="231" x="369.5" y="134.3853">disable(disabled?: boolean): void</text><ellipse cx="363.5" cy="144.3993" fill="#84BE84" rx="3" ry="3" style="stroke:#038048;stroke-width:1.0;"/><text fill="#AAAAAA" font-family="monospace" font-size="11" lengthAdjust="spacing" textLength="350" x="369.5" y="147.5852">restart(props?: Partial&lt;IProps&gt; | undefined): void</text><ellipse cx="363.5" cy="157.5992" fill="#84BE84" rx="3" ry="3" style="stroke:#038048;stroke-width:1.0;"/><text fill="#AAAAAA" font-family="monospace" font-size="11" lengthAdjust="spacing" textLength="266" x="369.5" y="160.7851">update(data?: IData | undefined): void</text><ellipse cx="363.5" cy="170.7991" fill="#84BE84" rx="3" ry="3" style="stroke:#038048;stroke-width:1.0;"/><text fill="#AAAAAA" font-family="monospace" font-size="11" lengthAdjust="spacing" textLength="210" x="369.5" y="173.985">getState(): IState | undefined</text><!--MD5=[7e20e022571e30ec1001cf6eabd7f3e2]
class Model--><rect codeLine="26" fill="#2E2E2E" filter="url(#fejp6n79gk1v6)" height="160.7991" id="Model" style="stroke:#1B1B1B;stroke-width:1.5;" width="422" x="733" y="241"/><ellipse cx="923.5" cy="254" fill="#BB6600" rx="8" ry="8" style="stroke:#1B1B1B;stroke-width:1.0;"/><path d="M925.625,257.5625 Q925.0469,257.8594 924.4219,258 Q923.8125,258.1563 923.1406,258.1563 Q921.1406,258.1563 919.9688,257.0469 Q918.7969,255.9219 918.7969,254 Q918.7969,252.0781 919.9688,250.9531 Q921.1406,249.8281 923.1406,249.8281 Q923.8125,249.8281 924.4219,249.9844 Q925.0469,250.1406 925.625,250.4375 L925.625,252.0938 Q925.0469,251.7031 924.4844,251.5156 Q923.9219,251.3281 923.3125,251.3281 Q922.2031,251.3281 921.5625,252.0469 Q920.9375,252.75 920.9375,254 Q920.9375,255.2344 921.5625,255.9531 Q922.2031,256.6563 923.3125,256.6563 Q923.9219,256.6563 924.4844,256.4844 Q925.0469,256.2969 925.625,255.9063 L925.625,257.5625 Z " fill="#000000"/><text fill="#FFFFFF" font-family="Verdana" font-size="11" lengthAdjust="spacing" textLength="34" x="939.5" y="257.8081">Model</text><line style="stroke:#1B1B1B;stroke-width:1.5;" x1="734" x2="1154" y1="267" y2="267"/><rect fill="none" height="6" style="stroke:#C82930;stroke-width:1.0;" width="6" x="741" y="275"/><text fill="#AAAAAA" font-family="monospace" font-size="11" lengthAdjust="spacing" textLength="133" x="750" y="281.1859">#props: IModelProps</text><rect fill="none" height="6" style="stroke:#C82930;stroke-width:1.0;" width="6" x="741" y="288.1999"/><text fill="#AAAAAA" font-family="monospace" font-size="11" lengthAdjust="spacing" textLength="133" x="750" y="294.3858">#state: IModelState</text><line style="stroke:#1B1B1B;stroke-width:1.5;" x1="734" x2="1154" y1="301.3998" y2="301.3998"/><ellipse cx="744" cy="312.3998" fill="#84BE84" rx="3" ry="3" style="stroke:#038048;stroke-width:1.0;"/><text fill="#AAAAAA" font-family="monospace" font-size="11" lengthAdjust="spacing" textLength="161" x="750" y="315.5857">getState(): IModelState</text><ellipse cx="744" cy="325.5997" fill="#84BE84" rx="3" ry="3" style="stroke:#038048;stroke-width:1.0;"/><text fill="#AAAAAA" font-family="monospace" font-size="11" lengthAdjust="spacing" textLength="252" x="750" y="328.7856">getSelectedPoints(): TCurrentPoint[]</text><ellipse cx="744" cy="338.7996" fill="#84BE84" rx="3" ry="3" style="stroke:#038048;stroke-width:1.0;"/><text fill="#AAAAAA" font-family="monospace" font-size="11" lengthAdjust="spacing" textLength="392" x="750" y="341.9855">getPointsMap(): [position: string, value: TPointValue][]</text><ellipse cx="744" cy="351.9995" fill="#84BE84" rx="3" ry="3" style="stroke:#038048;stroke-width:1.0;"/><text fill="#AAAAAA" font-family="monospace" font-size="11" lengthAdjust="spacing" textLength="399" x="750" y="355.1854">selectPointByUnknownPosition(positionRatio: number): void</text><ellipse cx="744" cy="365.1994" fill="#84BE84" rx="3" ry="3" style="stroke:#038048;stroke-width:1.0;"/><text fill="#AAAAAA" font-family="monospace" font-size="11" lengthAdjust="spacing" textLength="350" x="750" y="368.3853">selectPointByPosition(__0: [string, number]): void</text><ellipse cx="744" cy="378.3993" fill="#84BE84" rx="3" ry="3" style="stroke:#038048;stroke-width:1.0;"/><text fill="#AAAAAA" font-family="monospace" font-size="11" lengthAdjust="spacing" textLength="364" x="750" y="381.5852">selectPointByValue(__0: [string, TPointValue]): void</text><ellipse cx="744" cy="391.5992" fill="#84BE84" rx="3" ry="3" style="stroke:#038048;stroke-width:1.0;"/><text fill="#AAAAAA" font-family="monospace" font-size="11" lengthAdjust="spacing" textLength="245" x="750" y="394.7851">selectPointLimits(id: string): void</text><!--MD5=[c045e12321b83266d36d22b9096c24ea]
class View--><rect codeLine="37" fill="#2E2E2E" filter="url(#fejp6n79gk1v6)" height="147.5992" id="View" style="stroke:#1B1B1B;stroke-width:1.5;" width="254" x="7" y="247.5"/><ellipse cx="116.5" cy="260.5" fill="#BB6600" rx="8" ry="8" style="stroke:#1B1B1B;stroke-width:1.0;"/><path d="M118.625,264.0625 Q118.0469,264.3594 117.4219,264.5 Q116.8125,264.6563 116.1406,264.6563 Q114.1406,264.6563 112.9688,263.5469 Q111.7969,262.4219 111.7969,260.5 Q111.7969,258.5781 112.9688,257.4531 Q114.1406,256.3281 116.1406,256.3281 Q116.8125,256.3281 117.4219,256.4844 Q118.0469,256.6406 118.625,256.9375 L118.625,258.5938 Q118.0469,258.2031 117.4844,258.0156 Q116.9219,257.8281 116.3125,257.8281 Q115.2031,257.8281 114.5625,258.5469 Q113.9375,259.25 113.9375,260.5 Q113.9375,261.7344 114.5625,262.4531 Q115.2031,263.1563 116.3125,263.1563 Q116.9219,263.1563 117.4844,262.9844 Q118.0469,262.7969 118.625,262.4063 L118.625,264.0625 Z " fill="#000000"/><text fill="#FFFFFF" font-family="Verdana" font-size="11" lengthAdjust="spacing" textLength="28" x="132.5" y="264.3081">View</text><line style="stroke:#1B1B1B;stroke-width:1.5;" x1="8" x2="260" y1="273.5" y2="273.5"/><rect fill="none" height="6" style="stroke:#C82930;stroke-width:1.0;" width="6" x="15" y="281.5"/><text fill="#AAAAAA" font-family="monospace" font-size="11" lengthAdjust="spacing" textLength="140" x="24" y="287.6859">#parent: HTMLElement</text><rect fill="none" height="6" style="stroke:#C82930;stroke-width:1.0;" width="6" x="15" y="294.6999"/><text fill="#AAAAAA" font-family="monospace" font-size="11" lengthAdjust="spacing" textLength="126" x="24" y="300.8858">#props: IViewProps</text><rect fill="none" height="6" style="stroke:#C82930;stroke-width:1.0;" width="6" x="15" y="307.8998"/><text fill="#AAAAAA" font-family="monospace" font-size="11" lengthAdjust="spacing" textLength="126" x="24" y="314.0857">#state: IViewState</text><rect fill="none" height="6" style="stroke:#C82930;stroke-width:1.0;" width="6" x="15" y="321.0997"/><text fill="#AAAAAA" font-family="monospace" font-size="11" lengthAdjust="spacing" textLength="140" x="24" y="327.2856">#subViews: ISubViews</text><line style="stroke:#1B1B1B;stroke-width:1.5;" x1="8" x2="260" y1="334.2996" y2="334.2996"/><ellipse cx="18" cy="345.2996" fill="#84BE84" rx="3" ry="3" style="stroke:#038048;stroke-width:1.0;"/><text fill="#AAAAAA" font-family="monospace" font-size="11" lengthAdjust="spacing" textLength="105" x="24" y="348.4855">destroy(): void</text><ellipse cx="18" cy="358.4995" fill="#84BE84" rx="3" ry="3" style="stroke:#038048;stroke-width:1.0;"/><text fill="#AAAAAA" font-family="monospace" font-size="11" lengthAdjust="spacing" textLength="231" x="24" y="361.6854">disable(disabled?: boolean): void</text><ellipse cx="18" cy="371.6994" fill="#84BE84" rx="3" ry="3" style="stroke:#038048;stroke-width:1.0;"/><text fill="#AAAAAA" font-family="monospace" font-size="11" lengthAdjust="spacing" textLength="154" x="24" y="374.8853">getState(): IViewState</text><ellipse cx="18" cy="384.8993" fill="#84BE84" rx="3" ry="3" style="stroke:#038048;stroke-width:1.0;"/><text fill="#AAAAAA" font-family="monospace" font-size="11" lengthAdjust="spacing" textLength="231" x="24" y="388.0852">setState(state: IViewState): void</text><!--MD5=[5a1c7f93851865495a767ea595bb6184]
class SubView--><rect codeLine="47" fill="#2E2E2E" filter="url(#fejp6n79gk1v6)" height="147.5992" id="SubView" style="stroke:#1B1B1B;stroke-width:1.5;" width="540" x="45" y="462"/><ellipse cx="57" cy="475" fill="#A9DCDF" rx="8" ry="8" style="stroke:#1B1B1B;stroke-width:1.0;"/><path d="M58.875,476.7813 L55.6406,476.7813 L55.125,478.25 L53.0469,478.25 L56.0313,470.2344 L58.4844,470.2344 L61.4531,478.25 L59.375,478.25 L58.875,476.7813 Z M56.1563,475.2969 L58.3594,475.2969 L57.2656,472.1094 L56.1563,475.2969 Z " fill="#000000"/><text fill="#FFFFFF" font-family="Verdana" font-size="11" font-style="italic" lengthAdjust="spacing" textLength="48" x="68" y="478.8081">SubView</text><rect height="15.1999" style="stroke:#AAAAAA;stroke-width:1.0;fill:none;stroke-dasharray:2.0,2.0;" width="464" x="124" y="459"/><text fill="#AAAAAA" font-family="monospace" font-size="11" font-style="italic" lengthAdjust="spacing" textLength="462" x="125" y="470.5929">TState, TProps extends ISubViewProps, TElement extends HTMLElement</text><line style="stroke:#1B1B1B;stroke-width:1.5;" x1="46" x2="584" y1="488" y2="488"/><ellipse cx="56" cy="499" fill="none" rx="3" ry="3" style="stroke:#038048;stroke-width:1.0;"/><text fill="#AAAAAA" font-family="monospace" font-size="11" lengthAdjust="spacing" textLength="119" x="62" y="502.1859">element: TElement</text><polygon fill="none" points="56,507.1999,60,511.1999,56,515.1999,52,511.1999" style="stroke:#B38D22;stroke-width:1.0;"/><text fill="#AAAAAA" font-family="monospace" font-size="11" lengthAdjust="spacing" textLength="133" x="62" y="515.3858">parent: HTMLElement</text><polygon fill="none" points="56,520.3998,60,524.3998,56,528.3998,52,524.3998" style="stroke:#B38D22;stroke-width:1.0;"/><text fill="#AAAAAA" font-family="monospace" font-size="11" lengthAdjust="spacing" textLength="91" x="62" y="528.5857">props: TProps</text><polygon fill="none" points="56,533.5997,60,537.5997,56,541.5997,52,537.5997" style="stroke:#B38D22;stroke-width:1.0;"/><text fill="#AAAAAA" font-family="monospace" font-size="11" lengthAdjust="spacing" textLength="182" x="62" y="541.7856">state?: TState | undefined</text><line style="stroke:#1B1B1B;stroke-width:1.5;" x1="46" x2="584" y1="548.7996" y2="548.7996"/><ellipse cx="56" cy="559.7996" fill="#84BE84" rx="3" ry="3" style="stroke:#038048;stroke-width:1.0;"/><text fill="#AAAAAA" font-family="monospace" font-size="11" lengthAdjust="spacing" textLength="105" x="62" y="562.9855">destroy(): void</text><ellipse cx="56" cy="572.9995" fill="#84BE84" rx="3" ry="3" style="stroke:#038048;stroke-width:1.0;"/><text fill="#AAAAAA" font-family="monospace" font-size="11" lengthAdjust="spacing" textLength="231" x="62" y="576.1854">disable(disabled?: boolean): void</text><ellipse cx="56" cy="586.1994" fill="#84BE84" rx="3" ry="3" style="stroke:#038048;stroke-width:1.0;"/><text fill="#AAAAAA" font-family="monospace" font-size="11" lengthAdjust="spacing" textLength="210" x="62" y="589.3853">getState(): TState | undefined</text><ellipse cx="56" cy="599.3993" fill="#84BE84" rx="3" ry="3" style="stroke:#038048;stroke-width:1.0;"/><text fill="#AAAAAA" font-family="monospace" font-size="11" lengthAdjust="spacing" textLength="203" x="62" y="602.5852">setState(state: TState): void</text><!--MD5=[cbbf82bdaf40d17226f02fa530acc218]
reverse link Observable to SubView--><path d="M440.75,395.627 C440.75,395.627 440.75,461.637 440.75,461.637 " fill="none" id="Observable-backto-SubView" style="stroke:#808080;stroke-width:1.0;"/><polygon fill="none" points="433.75,395.627,440.75,375.627,447.75,395.627,433.75,395.627" style="stroke:#808080;stroke-width:1.0;"/><!--MD5=[e3363ae2a0d66bf7bf5a51e007a02d49]
reverse link Observable to Model--><path codeLine="58" d="M717.618,322 C717.618,322 732.904,322 732.904,322 " fill="none" id="Observable-backto-Model" style="stroke:#808080;stroke-width:1.0;"/><polygon fill="none" points="717.618,329,697.618,322,717.618,315,717.618,329" style="stroke:#808080;stroke-width:1.0;"/><!--MD5=[f6c28b548f263e1093926fc03bfd3896]
link View to Observable--><path codeLine="59" d="M261.215,322 C261.215,322 276.294,322 276.294,322 " fill="none" id="View-to-Observable" style="stroke:#808080;stroke-width:1.0;"/><polygon fill="none" points="276.294,315,296.294,322,276.294,329,276.294,315" style="stroke:#808080;stroke-width:1.0;"/><!--MD5=[f9623b885a35beec45b4bb80d1a81c16]
reverse link View to SubView--><path codeLine="60" d="M153,408.619 C153,408.619 153,461.878 153,461.878 " fill="none" id="View-backto-SubView" style="stroke:#808080;stroke-width:1.0;"/><polygon fill="#808080" points="153,395.619,149,401.619,153,407.619,157,401.619,153,395.619" style="stroke:#808080;stroke-width:1.0;"/><!--MD5=[757302d792939ab5116a13a77b6fdf88]
reverse link Presenter to Model--><path codeLine="61" d="M711.5,194.097 C711.5,194.097 711.5,255 711.5,255 C711.5,255 719.674,255 732.956,255 " fill="none" id="Presenter-backto-Model" style="stroke:#808080;stroke-width:1.0;"/><polygon fill="#808080" points="711.5,181.097,707.5,187.097,711.5,193.097,715.5,187.097,711.5,181.097" style="stroke:#808080;stroke-width:1.0;"/><!--MD5=[94ac34da17b748a109eb6ac0e62bba58]
reverse link Presenter to View--><path codeLine="62" d="M525,194.413 C525,194.413 525,261 525,261 C525,261 375.352,261 261.217,261 " fill="none" id="Presenter-backto-View" style="stroke:#808080;stroke-width:1.0;"/><polygon fill="#808080" points="525,181.413,521,187.413,525,193.413,529,187.413,525,181.413" style="stroke:#808080;stroke-width:1.0;"/><!--MD5=[35b1b36ebadad230ab69af56c76b01c5]
@startuml
!theme reddress-darkorange
skinparam backgroundColor transparent
skinparam arrowColor grey
skinparam defaultFontName monospaced
skinparam linetype ortho

abstract class Observable<TData> {
    -#observers: TObserverMethod<TData>[]
    +addObserver(observer: TObserverMethod<TData>): void
    +removeObserver(observer: TObserverMethod<TData>): void
    +getObserverNames(): string[]
    #notifyObservers(data: TData): void
}
class Presenter {
    -#parent: HTMLElement
    -#props: IProps
    -#state?: IState | undefined
    -#model?: Model | undefined
    -#view?: View | undefined
    +destroy(): void
    +disable(disabled?: boolean): void
    +restart(props?: Partial<IProps> | undefined): void
    +update(data?: IData | undefined): void
    +getState(): IState | undefined
}
class Model {
    -#props: IModelProps
    -#state: IModelState
    +getState(): IModelState
    +getSelectedPoints(): TCurrentPoint[]
    +getPointsMap(): [position: string, value: TPointValue][]
    +selectPointByUnknownPosition(positionRatio: number): void
    +selectPointByPosition(__0: [string, number]): void
    +selectPointByValue(__0: [string, TPointValue]): void
    +selectPointLimits(id: string): void
}
class View {
    -#parent: HTMLElement
    -#props: IViewProps
    -#state: IViewState
    -#subViews: ISubViews
    +destroy(): void
    +disable(disabled?: boolean): void
    +getState(): IViewState
    +setState(state: IViewState): void
}
abstract class SubView<TState, TProps extends ISubViewProps, TElement extends HTMLElement> extends Observable {
    +element: TElement
    #parent: HTMLElement
    #props: TProps
    #state?: TState | undefined
    +destroy(): void
    +disable(disabled?: boolean): void
    +getState(): TState | undefined
    +setState(state: TState): void
}

Observable <|-right- Model
Observable <|-left- View
View *- - SubView
Presenter *- - Model
Presenter *- - View
@enduml

@startuml



skinparam stereotypeCBackgroundColor BB6600
skinparam backgroundColor 777







skinparam circledCharacter {
  radius 8
  fontSize 11
  fontName Verdana
}

skinparam class {
    backgroundColor 2e2e2e
  borderColor 1b1b1b
    fontColor fff
  fontName Verdana
  fontSize 11
  stereotypeFontColor aaa
  stereotypeFontSize 11
    arrowColor fff
  arrowFontName Verdana
  arrowFontColor bbb
  arrowFontSize 11

  attributeFontColor aaa
  attributeFontSize 11
  attributeIconSize 11
}


skinparam actor {
    backgroundColor BB6600
  borderColor 662200
    fontColor fff
  fontName Verdana
  fontSize 11
  stereotypeFontColor aaa
  stereotypeFontSize 11
}

skinparam participant {
    backgroundColor 2e2e2e
  borderColor 1b1b1b
    fontColor fff
  fontName Verdana
  fontSize 11
  stereotypeFontColor aaa
  stereotypeFontSize 11
}

skinparam collections {
    backgroundColor 2e2e2e
  borderColor 1b1b1b
    fontColor fff
  fontName Verdana
  fontSize 11
  stereotypeFontColor aaa
  stereotypeFontSize 11
}

skinparam SequenceBox{
    backgroundColor 575757
  borderColor 767676
    fontColor fff
  fontName Verdana
  fontSize 11
  stereotypeFontColor aaa
  stereotypeFontSize 11
}


skinparam interface {
    backgroundColor BB6600
  borderColor 662200
    fontColor fff
  fontName Verdana
  fontSize 11
  stereotypeFontColor aaa
  stereotypeFontSize 11
}

skinparam component {
    backgroundColor 2e2e2e
  borderColor 1b1b1b
    fontColor fff
  fontName Verdana
  fontSize 11
  stereotypeFontColor aaa
  stereotypeFontSize 11
}

skinparam node {
    backgroundColor 2e2e2e
  borderColor 1b1b1b
    fontColor fff
  fontName Verdana
  fontSize 11
  stereotypeFontColor aaa
  stereotypeFontSize 11
}

skinparam database {
    backgroundColor 2e2e2e
  borderColor 1b1b1b
    fontColor fff
  fontName Verdana
  fontSize 11
  stereotypeFontColor aaa
  stereotypeFontSize 11
}

skinparam queue {
    backgroundColor 2e2e2e
  borderColor 1b1b1b
    fontColor fff
  fontName Verdana
  fontSize 11
  stereotypeFontColor aaa
  stereotypeFontSize 11
}


skinparam usecase {
    backgroundColor 2e2e2e
  borderColor 1b1b1b
    fontColor fff
  fontName Verdana
  fontSize 11
  stereotypeFontColor aaa
  stereotypeFontSize 11
    arrowColor fff
  arrowFontName Verdana
  arrowFontColor bbb
  arrowFontSize 11
}

skinparam activity {
    backgroundColor 2e2e2e
  borderColor 1b1b1b
    fontColor fff
  fontName Verdana
  fontSize 11
  stereotypeFontColor aaa
  stereotypeFontSize 11
    arrowColor fff
  arrowFontName Verdana
  arrowFontColor bbb
  arrowFontSize 11
}

skinparam sequence {
    fontColor fff
  fontName Verdana
  fontSize 11
  stereotypeFontColor aaa
  stereotypeFontSize 11
    arrowColor fff
  arrowFontName Verdana
  arrowFontColor bbb
  arrowFontSize 11

  lifeLineBorderColor BB6600
  lifeLineBackgroundColor 575757
}

skinparam boundary {
    backgroundColor BB6600
  borderColor 662200
    fontColor fff
  fontName Verdana
  fontSize 11
  stereotypeFontColor aaa
  stereotypeFontSize 11
}

skinparam control {
    backgroundColor BB6600
  borderColor 662200
    fontColor fff
  fontName Verdana
  fontSize 11
  stereotypeFontColor aaa
  stereotypeFontSize 11
}

skinparam entity {
    backgroundColor BB6600
  borderColor 662200
    fontColor fff
  fontName Verdana
  fontSize 11
  stereotypeFontColor aaa
  stereotypeFontSize 11
}


skinparam state {
    backgroundColor 2e2e2e
  borderColor 1b1b1b
    fontColor fff
  fontName Verdana
  fontSize 11
  stereotypeFontColor aaa
  stereotypeFontSize 11
    arrowColor fff
  arrowFontName Verdana
  arrowFontColor bbb
  arrowFontSize 11
  startColor BB6600
  endColor 662200
}


skinparam object {
    backgroundColor 2e2e2e
  borderColor 1b1b1b
    fontColor fff
  fontName Verdana
  fontSize 11
  stereotypeFontColor aaa
  stereotypeFontSize 11
    arrowColor fff
  arrowFontName Verdana
  arrowFontColor bbb
  arrowFontSize 11
}


skinparam note {
    backgroundColor BB6600
  borderColor 662200
    fontColor fff
  fontName Verdana
  fontSize 11
  stereotypeFontColor aaa
  stereotypeFontSize 11
}

skinparam cloud {
    backgroundColor 2e2e2e
  borderColor 1b1b1b
    fontColor fff
  fontName Verdana
  fontSize 11
  stereotypeFontColor aaa
  stereotypeFontSize 11
    arrowColor fff
  arrowFontName Verdana
  arrowFontColor bbb
  arrowFontSize 11
}

skinparam rectangle {
    backgroundColor 2e2e2e
  borderColor 1b1b1b
    fontColor fff
  fontName Verdana
  fontSize 11
  stereotypeFontColor aaa
  stereotypeFontSize 11
}

skinparam storage {
    backgroundColor 2e2e2e
  borderColor 1b1b1b
    fontColor fff
  fontName Verdana
  fontSize 11
  stereotypeFontColor aaa
  stereotypeFontSize 11
}
skinparam backgroundColor transparent
skinparam arrowColor grey
skinparam defaultFontName monospaced
skinparam linetype ortho

abstract class Observable<TData> {
    -#observers: TObserverMethod<TData>[]
    +addObserver(observer: TObserverMethod<TData>): void
    +removeObserver(observer: TObserverMethod<TData>): void
    +getObserverNames(): string[]
    #notifyObservers(data: TData): void
}
class Presenter {
    -#parent: HTMLElement
    -#props: IProps
    -#state?: IState | undefined
    -#model?: Model | undefined
    -#view?: View | undefined
    +destroy(): void
    +disable(disabled?: boolean): void
    +restart(props?: Partial<IProps> | undefined): void
    +update(data?: IData | undefined): void
    +getState(): IState | undefined
}
class Model {
    -#props: IModelProps
    -#state: IModelState
    +getState(): IModelState
    +getSelectedPoints(): TCurrentPoint[]
    +getPointsMap(): [position: string, value: TPointValue][]
    +selectPointByUnknownPosition(positionRatio: number): void
    +selectPointByPosition(__0: [string, number]): void
    +selectPointByValue(__0: [string, TPointValue]): void
    +selectPointLimits(id: string): void
}
class View {
    -#parent: HTMLElement
    -#props: IViewProps
    -#state: IViewState
    -#subViews: ISubViews
    +destroy(): void
    +disable(disabled?: boolean): void
    +getState(): IViewState
    +setState(state: IViewState): void
}
abstract class SubView<TState, TProps extends ISubViewProps, TElement extends HTMLElement> extends Observable {
    +element: TElement
    #parent: HTMLElement
    #props: TProps
    #state?: TState | undefined
    +destroy(): void
    +disable(disabled?: boolean): void
    +getState(): TState | undefined
    +setState(state: TState): void
}

Observable <|-right- Model
Observable <|-left- View
View *- - SubView
Presenter *- - Model
Presenter *- - View
@enduml

PlantUML version 1.2022.2beta1(Unknown compile time)
(GPL source distribution)
Java Runtime: Java(TM) SE Runtime Environment
JVM: Java HotSpot(TM) 64-Bit Server VM
Default Encoding: UTF-8
Language: en
Country: US
--></g></svg>