<?xml version="1.0" encoding="UTF-8" standalone="no"?><svg xmlns="http://www.w3.org/2000/svg" xmlns:xlink="http://www.w3.org/1999/xlink" contentScriptType="application/ecmascript" contentStyleType="text/css" height="936.4583px" preserveAspectRatio="none" style="width:1102px;height:936px;background:#00000000;" version="1.1" viewBox="0 0 1102 936" width="1102.0833px" zoomAndPan="magnify"><defs><linearGradient id="g183cwcmmvt0w00" x1="50%" x2="50%" y1="0%" y2="100%"><stop offset="0%" stop-color="#7C9AB9"/><stop offset="100%" stop-color="#304D6D"/></linearGradient><linearGradient id="g183cwcmmvt0w01" x1="50%" x2="50%" y1="0%" y2="100%"><stop offset="0%" stop-color="#7C9AB9"/><stop offset="100%" stop-color="#446E9B"/></linearGradient></defs><g><!--MD5=[c0bd9f44073f1a51428d87d6a9cf071b]
class Observable--><rect codeLine="5" fill="url(#g183cwcmmvt0w00)" height="170.8252" id="Observable" rx="4.1667" ry="4.1667" style="stroke:#304D6D;stroke-width:1.0416666666666667;" width="400" x="275" y="406.7708"/><rect fill="url(#g183cwcmmvt0w01)" height="35.3841" rx="4.1667" ry="4.1667" style="stroke:url(#g183cwcmmvt0w01);stroke-width:1.0416666666666667;" width="400" x="275" y="406.7708"/><rect fill="url(#g183cwcmmvt0w01)" height="4.1667" style="stroke:url(#g183cwcmmvt0w01);stroke-width:1.0416666666666667;" width="400" x="275" y="437.9883"/><rect codeLine="5" fill="none" height="170.8252" id="Observable" rx="4.1667" ry="4.1667" style="stroke:#304D6D;stroke-width:1.0416666666666667;" width="400" x="275" y="406.7708"/><ellipse cx="405.2083" cy="424.4629" fill="#4CBC5C" rx="10.4167" ry="10.4167" style="stroke:#32A243;stroke-width:1.0416666666666667;"/><path d="M406.7546,425.6185 L407.0475,426.3346 L406.7546,426.3346 C406.4453,426.3346 406.3477,426.3509 406.2337,426.4323 C406.0547,426.5299 405.9408,426.7578 405.9408,426.9694 C405.9408,427.1647 406.0384,427.3438 406.2012,427.4577 C406.3151,427.5553 406.4616,427.5879 406.7546,427.5879 L408.4961,427.5879 C408.7565,427.5879 408.9193,427.5553 409.0169,427.5065 C409.2122,427.3926 409.3262,427.181 409.3262,426.9694 C409.3262,426.7578 409.2285,426.5788 409.0658,426.4648 C408.9355,426.3672 408.8216,426.3346 408.4798,426.3346 L405.9896,420.2962 L403.2878,420.2962 C402.946,420.2962 402.8646,420.3125 402.7507,420.3939 C402.5553,420.5078 402.4577,420.7194 402.4577,420.931 C402.4577,421.1263 402.5553,421.3053 402.7181,421.4355 C402.832,421.5332 402.9622,421.5495 403.2878,421.5495 L404.069,421.5495 L402.1322,426.3346 C401.8229,426.3346 401.709,426.3509 401.5951,426.4323 C401.416,426.5299 401.3021,426.7578 401.3021,426.9694 C401.3021,427.3763 401.5788,427.5879 402.1322,427.5879 L403.7923,427.5879 C404.0527,427.5879 404.2155,427.5553 404.3132,427.5065 C404.4922,427.3926 404.6061,427.181 404.6061,426.9694 C404.6061,426.7578 404.5085,426.5788 404.3457,426.4486 C404.2318,426.3672 404.1178,426.3346 403.7923,426.3346 L403.4993,426.3346 L403.7923,425.6185 L406.7546,425.6185 Z M406.25,424.3652 L404.2806,424.3652 L405.2734,421.9564 L406.25,424.3652 Z " fill="#000000"/><text fill="#FFFFFF" font-family="Consolas" font-size="12.5" font-style="italic" lengthAdjust="spacing" textLength="69.7917" x="430.2083" y="428.7903">Observable</text><rect height="27.0508" style="stroke:#EEEEEE;stroke-width:1.0416666666666667;fill:none;stroke-dasharray:2.0,2.0;" width="48.9583" x="629.1667" y="403.6458"/><text fill="#EEEEEE" font-family="Consolas" font-size="12.5" font-style="italic" lengthAdjust="spacing" textLength="36.4583" x="635.4167" y="421.4986">TData</text><line style="stroke:#304D6D;stroke-width:1.0416666666666667;" x1="276.0417" x2="673.9583" y1="442.1549" y2="442.1549"/><rect fill="none" height="6.25" style="stroke:#C82930;stroke-width:1.0416666666666667;" width="6.25" x="283.3333" y="450.4883"/><text fill="#EEEEEE" font-family="Consolas" font-size="11.4583" lengthAdjust="spacing" textLength="244.7917" x="300" y="462.1658">#observers: TObserverMethod&lt;TData&gt;[]</text><line style="stroke:#304D6D;stroke-width:1.0416666666666667;" x1="276.0417" x2="673.9583" y1="474.2432" y2="474.2432"/><ellipse cx="286.4583" cy="485.7015" fill="#84BE84" rx="3.125" ry="3.125" style="stroke:#038048;stroke-width:1.0416666666666667;"/><text fill="#EEEEEE" font-family="Consolas" font-size="11.4583" lengthAdjust="spacing" textLength="338.5417" x="300" y="494.254">addObserver(observer: TObserverMethod&lt;TData&gt;): void</text><ellipse cx="286.4583" cy="509.4564" fill="#84BE84" rx="3.125" ry="3.125" style="stroke:#038048;stroke-width:1.0416666666666667;"/><text fill="#EEEEEE" font-family="Consolas" font-size="11.4583" lengthAdjust="spacing" textLength="363.5417" x="300" y="518.0089">removeObserver(observer: TObserverMethod&lt;TData&gt;): void</text><ellipse cx="286.4583" cy="533.2113" fill="#84BE84" rx="3.125" ry="3.125" style="stroke:#038048;stroke-width:1.0416666666666667;"/><text fill="#EEEEEE" font-family="Consolas" font-size="11.4583" lengthAdjust="spacing" textLength="172.9167" x="300" y="541.7638">getObserverNames(): string[]</text><polygon fill="#FFFF44" points="286.4583,551.7578,290.625,555.9245,286.4583,560.0911,282.2917,555.9245" style="stroke:#B38D22;stroke-width:1.0416666666666667;"/><text fill="#EEEEEE" font-family="Consolas" font-size="11.4583" lengthAdjust="spacing" textLength="204.1667" x="300" y="565.5187">notifyObservers(data: TData): void</text><!--MD5=[3de993ac3dd18e6abf686ebe9c2e07b2]
class Presenter--><rect codeLine="12" fill="url(#g183cwcmmvt0w00)" height="289.5996" id="Presenter" rx="4.1667" ry="4.1667" style="stroke:#304D6D;stroke-width:1.0416666666666667;" width="321.875" x="351.5625" y="7.2917"/><rect fill="url(#g183cwcmmvt0w01)" height="35.3841" rx="4.1667" ry="4.1667" style="stroke:url(#g183cwcmmvt0w01);stroke-width:1.0416666666666667;" width="321.875" x="351.5625" y="7.2917"/><rect fill="url(#g183cwcmmvt0w01)" height="4.1667" style="stroke:url(#g183cwcmmvt0w01);stroke-width:1.0416666666666667;" width="321.875" x="351.5625" y="38.5091"/><rect codeLine="12" fill="none" height="289.5996" id="Presenter" rx="4.1667" ry="4.1667" style="stroke:#304D6D;stroke-width:1.0416666666666667;" width="321.875" x="351.5625" y="7.2917"/><ellipse cx="472.9167" cy="24.9837" fill="#B8B8B8" rx="10.4167" ry="10.4167" style="stroke:#6B6B6B;stroke-width:1.0416666666666667;"/><path d="M474.8535,21.5983 C474.1699,21.2728 473.7305,21.1751 473.0794,21.1751 C471.1589,21.1751 469.6777,22.6888 469.6777,24.6908 L469.6777,25.5208 C469.6777,27.4251 471.2402,28.8086 473.3561,28.8086 C474.2513,28.8086 475.1139,28.5807 475.651,28.1738 C476.0905,27.8809 476.3184,27.5553 476.3184,27.2624 C476.3184,26.9368 476.0254,26.6439 475.6999,26.6439 C475.5371,26.6439 475.3906,26.709 475.2441,26.8392 C474.9023,27.1973 474.9023,27.1973 474.7721,27.2624 C474.4629,27.4577 473.9583,27.5553 473.3887,27.5553 C471.8913,27.5553 470.931,26.7415 470.931,25.4883 L470.931,24.6908 C470.931,23.3724 471.8587,22.4121 473.1283,22.4121 C473.5514,22.4121 474.0072,22.526 474.349,22.7214 C474.707,22.9167 474.8372,23.0794 474.9023,23.3724 C474.9512,23.6816 474.9674,23.763 475.0651,23.8607 C475.1628,23.9746 475.3418,24.0397 475.5046,24.0397 C475.7161,24.0397 475.8952,23.9421 476.0254,23.7793 C476.1068,23.6654 476.1393,23.5352 476.1393,23.2096 L476.1393,22.168 C476.1393,21.8587 476.123,21.7611 476.0417,21.6471 C475.9277,21.4518 475.7324,21.3379 475.5046,21.3379 C475.293,21.3379 475.1465,21.4193 474.9837,21.6471 L474.8535,21.5983 Z " fill="#000000"/><text fill="#FFFFFF" font-family="Consolas" font-size="12.5" lengthAdjust="spacing" textLength="60.4167" x="497.9167" y="29.3111">Presenter</text><line style="stroke:#304D6D;stroke-width:1.0416666666666667;" x1="352.6042" x2="672.3958" y1="42.6758" y2="42.6758"/><rect fill="none" height="6.25" style="stroke:#C82930;stroke-width:1.0416666666666667;" width="6.25" x="359.8958" y="51.0091"/><text fill="#EEEEEE" font-family="Consolas" font-size="11.4583" lengthAdjust="spacing" textLength="136.4583" x="376.5625" y="62.6867">#parent: HTMLElement</text><rect fill="none" height="6.25" style="stroke:#C82930;stroke-width:1.0416666666666667;" width="6.25" x="359.8958" y="74.764"/><text fill="#EEEEEE" font-family="Consolas" font-size="11.4583" lengthAdjust="spacing" textLength="83.3333" x="376.5625" y="86.4415">#props: IProps</text><rect fill="none" height="6.25" style="stroke:#C82930;stroke-width:1.0416666666666667;" width="6.25" x="359.8958" y="98.5189"/><text fill="#EEEEEE" font-family="Consolas" font-size="11.4583" lengthAdjust="spacing" textLength="160.4167" x="376.5625" y="110.1964">#state?: IState | undefined</text><rect fill="none" height="6.25" style="stroke:#C82930;stroke-width:1.0416666666666667;" width="6.25" x="359.8958" y="122.2738"/><text fill="#EEEEEE" font-family="Consolas" font-size="11.4583" lengthAdjust="spacing" textLength="167.7083" x="376.5625" y="133.9513">#model?: Model | undefined</text><rect fill="none" height="6.25" style="stroke:#C82930;stroke-width:1.0416666666666667;" width="6.25" x="359.8958" y="146.0286"/><text fill="#EEEEEE" font-family="Consolas" font-size="11.4583" lengthAdjust="spacing" textLength="152.0833" x="376.5625" y="157.7062">#view?: View | undefined</text><line style="stroke:#304D6D;stroke-width:1.0416666666666667;" x1="352.6042" x2="672.3958" y1="169.7835" y2="169.7835"/><ellipse cx="363.0208" cy="181.2419" fill="#84BE84" rx="3.125" ry="3.125" style="stroke:#038048;stroke-width:1.0416666666666667;"/><text fill="#EEEEEE" font-family="Consolas" font-size="11.4583" lengthAdjust="spacing" textLength="85.4167" x="376.5625" y="189.7944">destroy(): void</text><ellipse cx="363.0208" cy="204.9967" fill="#84BE84" rx="3.125" ry="3.125" style="stroke:#038048;stroke-width:1.0416666666666667;"/><text fill="#EEEEEE" font-family="Consolas" font-size="11.4583" lengthAdjust="spacing" textLength="194.7917" x="376.5625" y="213.5493">disable(disabled?: boolean): void</text><ellipse cx="363.0208" cy="228.7516" fill="#84BE84" rx="3.125" ry="3.125" style="stroke:#038048;stroke-width:1.0416666666666667;"/><text fill="#EEEEEE" font-family="Consolas" font-size="11.4583" lengthAdjust="spacing" textLength="285.4167" x="376.5625" y="237.3042">restart(props?: Partial&lt;IProps&gt; | undefined): void</text><ellipse cx="363.0208" cy="252.5065" fill="#84BE84" rx="3.125" ry="3.125" style="stroke:#038048;stroke-width:1.0416666666666667;"/><text fill="#EEEEEE" font-family="Consolas" font-size="11.4583" lengthAdjust="spacing" textLength="225" x="376.5625" y="261.0591">update(data?: IData | undefined): void</text><ellipse cx="363.0208" cy="276.2614" fill="#84BE84" rx="3.125" ry="3.125" style="stroke:#038048;stroke-width:1.0416666666666667;"/><text fill="#EEEEEE" font-family="Consolas" font-size="11.4583" lengthAdjust="spacing" textLength="175" x="376.5625" y="284.8139">getState(): IState | undefined</text><!--MD5=[7e20e022571e30ec1001cf6eabd7f3e2]
class Model--><rect codeLine="24" fill="url(#g183cwcmmvt0w00)" height="265.8447" id="Model" rx="4.1667" ry="4.1667" style="stroke:#304D6D;stroke-width:1.0416666666666667;" width="383.3333" x="711.4583" y="359.375"/><rect fill="url(#g183cwcmmvt0w01)" height="35.3841" rx="4.1667" ry="4.1667" style="stroke:url(#g183cwcmmvt0w01);stroke-width:1.0416666666666667;" width="383.3333" x="711.4583" y="359.375"/><rect fill="url(#g183cwcmmvt0w01)" height="4.1667" style="stroke:url(#g183cwcmmvt0w01);stroke-width:1.0416666666666667;" width="383.3333" x="711.4583" y="390.5924"/><rect codeLine="24" fill="none" height="265.8447" id="Model" rx="4.1667" ry="4.1667" style="stroke:#304D6D;stroke-width:1.0416666666666667;" width="383.3333" x="711.4583" y="359.375"/><ellipse cx="874.4792" cy="377.0671" fill="#B8B8B8" rx="10.4167" ry="10.4167" style="stroke:#6B6B6B;stroke-width:1.0416666666666667;"/><path d="M876.416,373.6816 C875.7324,373.3561 875.293,373.2585 874.6419,373.2585 C872.7214,373.2585 871.2402,374.7721 871.2402,376.7741 L871.2402,377.6042 C871.2402,379.5085 872.8027,380.8919 874.9186,380.8919 C875.8138,380.8919 876.6764,380.6641 877.2135,380.2572 C877.653,379.9642 877.8809,379.6387 877.8809,379.3457 C877.8809,379.0202 877.5879,378.7272 877.2624,378.7272 C877.0996,378.7272 876.9531,378.7923 876.8066,378.9225 C876.4648,379.2806 876.4648,379.2806 876.3346,379.3457 C876.0254,379.541 875.5208,379.6387 874.9512,379.6387 C873.4538,379.6387 872.4935,378.8249 872.4935,377.5716 L872.4935,376.7741 C872.4935,375.4557 873.4212,374.4954 874.6908,374.4954 C875.1139,374.4954 875.5697,374.6094 875.9115,374.8047 C876.2695,375 876.3997,375.1628 876.4648,375.4557 C876.5137,375.765 876.5299,375.8464 876.6276,375.944 C876.7253,376.0579 876.9043,376.123 877.0671,376.123 C877.2786,376.123 877.4577,376.0254 877.5879,375.8626 C877.6693,375.7487 877.7018,375.6185 877.7018,375.293 L877.7018,374.2513 C877.7018,373.9421 877.6855,373.8444 877.6042,373.7305 C877.4902,373.5352 877.2949,373.4212 877.0671,373.4212 C876.8555,373.4212 876.709,373.5026 876.5462,373.7305 L876.416,373.6816 Z " fill="#000000"/><text fill="#FFFFFF" font-family="Consolas" font-size="12.5" lengthAdjust="spacing" textLength="38.5417" x="899.4792" y="381.3944">Model</text><line style="stroke:#304D6D;stroke-width:1.0416666666666667;" x1="712.5" x2="1093.75" y1="394.7591" y2="394.7591"/><rect fill="none" height="6.25" style="stroke:#C82930;stroke-width:1.0416666666666667;" width="6.25" x="719.7917" y="403.0924"/><text fill="#EEEEEE" font-family="Consolas" font-size="11.4583" lengthAdjust="spacing" textLength="118.75" x="736.4583" y="414.77">#props: IModelProps</text><rect fill="none" height="6.25" style="stroke:#C82930;stroke-width:1.0416666666666667;" width="6.25" x="719.7917" y="426.8473"/><text fill="#EEEEEE" font-family="Consolas" font-size="11.4583" lengthAdjust="spacing" textLength="117.7083" x="736.4583" y="438.5249">#state: IModelState</text><line style="stroke:#304D6D;stroke-width:1.0416666666666667;" x1="712.5" x2="1093.75" y1="450.6022" y2="450.6022"/><ellipse cx="722.9167" cy="462.0605" fill="#84BE84" rx="3.125" ry="3.125" style="stroke:#038048;stroke-width:1.0416666666666667;"/><text fill="#EEEEEE" font-family="Consolas" font-size="11.4583" lengthAdjust="spacing" textLength="138.5417" x="736.4583" y="470.6131">getState(): IModelState</text><ellipse cx="722.9167" cy="485.8154" fill="#84BE84" rx="3.125" ry="3.125" style="stroke:#038048;stroke-width:1.0416666666666667;"/><text fill="#EEEEEE" font-family="Consolas" font-size="11.4583" lengthAdjust="spacing" textLength="211.4583" x="736.4583" y="494.368">getSelectedPoints(): TCurrentPoint[]</text><ellipse cx="722.9167" cy="509.5703" fill="#84BE84" rx="3.125" ry="3.125" style="stroke:#038048;stroke-width:1.0416666666666667;"/><text fill="#EEEEEE" font-family="Consolas" font-size="11.4583" lengthAdjust="spacing" textLength="313.5417" x="736.4583" y="518.1229">getPointsMap(): [position: string, value: TPointValue][]</text><ellipse cx="722.9167" cy="533.3252" fill="#84BE84" rx="3.125" ry="3.125" style="stroke:#038048;stroke-width:1.0416666666666667;"/><text fill="#EEEEEE" font-family="Consolas" font-size="11.4583" lengthAdjust="spacing" textLength="346.875" x="736.4583" y="541.8777">selectPointByUnknownPosition(positionRatio: number): void</text><ellipse cx="722.9167" cy="557.0801" fill="#84BE84" rx="3.125" ry="3.125" style="stroke:#038048;stroke-width:1.0416666666666667;"/><text fill="#EEEEEE" font-family="Consolas" font-size="11.4583" lengthAdjust="spacing" textLength="286.4583" x="736.4583" y="565.6326">selectPointByPosition(__0: [string, number]): void</text><ellipse cx="722.9167" cy="580.835" fill="#84BE84" rx="3.125" ry="3.125" style="stroke:#038048;stroke-width:1.0416666666666667;"/><text fill="#EEEEEE" font-family="Consolas" font-size="11.4583" lengthAdjust="spacing" textLength="300" x="736.4583" y="589.3875">selectPointByValue(__0: [string, TPointValue]): void</text><ellipse cx="722.9167" cy="604.5898" fill="#84BE84" rx="3.125" ry="3.125" style="stroke:#038048;stroke-width:1.0416666666666667;"/><text fill="#EEEEEE" font-family="Consolas" font-size="11.4583" lengthAdjust="spacing" textLength="189.5833" x="736.4583" y="613.1424">selectPointLimits(id: string): void</text><!--MD5=[c045e12321b83266d36d22b9096c24ea]
class View--><rect codeLine="35" fill="url(#g183cwcmmvt0w00)" height="242.0898" id="View" rx="4.1667" ry="4.1667" style="stroke:#304D6D;stroke-width:1.0416666666666667;" width="231.25" x="7.2917" y="371.3542"/><rect fill="url(#g183cwcmmvt0w01)" height="35.3841" rx="4.1667" ry="4.1667" style="stroke:url(#g183cwcmmvt0w01);stroke-width:1.0416666666666667;" width="231.25" x="7.2917" y="371.3542"/><rect fill="url(#g183cwcmmvt0w01)" height="4.1667" style="stroke:url(#g183cwcmmvt0w01);stroke-width:1.0416666666666667;" width="231.25" x="7.2917" y="402.5716"/><rect codeLine="35" fill="none" height="242.0898" id="View" rx="4.1667" ry="4.1667" style="stroke:#304D6D;stroke-width:1.0416666666666667;" width="231.25" x="7.2917" y="371.3542"/><ellipse cx="98.4375" cy="389.0462" fill="#B8B8B8" rx="10.4167" ry="10.4167" style="stroke:#6B6B6B;stroke-width:1.0416666666666667;"/><path d="M100.3743,385.6608 C99.6908,385.3353 99.2513,385.2376 98.6003,385.2376 C96.6797,385.2376 95.1986,386.7513 95.1986,388.7533 L95.1986,389.5833 C95.1986,391.4876 96.7611,392.8711 98.877,392.8711 C99.7721,392.8711 100.6348,392.6432 101.1719,392.2363 C101.6113,391.9434 101.8392,391.6178 101.8392,391.3249 C101.8392,390.9993 101.5462,390.7064 101.2207,390.7064 C101.0579,390.7064 100.9115,390.7715 100.765,390.9017 C100.4232,391.2598 100.4232,391.2598 100.293,391.3249 C99.9837,391.5202 99.4792,391.6178 98.9095,391.6178 C97.4121,391.6178 96.4518,390.804 96.4518,389.5508 L96.4518,388.7533 C96.4518,387.4349 97.3796,386.4746 98.6491,386.4746 C99.0723,386.4746 99.528,386.5885 99.8698,386.7839 C100.2279,386.9792 100.3581,387.1419 100.4232,387.4349 C100.472,387.7441 100.4883,387.8255 100.5859,387.9232 C100.6836,388.0371 100.8626,388.1022 101.0254,388.1022 C101.237,388.1022 101.416,388.0046 101.5462,387.8418 C101.6276,387.7279 101.6602,387.5977 101.6602,387.2721 L101.6602,386.2305 C101.6602,385.9212 101.6439,385.8236 101.5625,385.7096 C101.4486,385.5143 101.2533,385.4004 101.0254,385.4004 C100.8138,385.4004 100.6673,385.4818 100.5046,385.7096 L100.3743,385.6608 Z " fill="#000000"/><text fill="#FFFFFF" font-family="Consolas" font-size="12.5" lengthAdjust="spacing" textLength="30.2083" x="123.4375" y="393.3736">View</text><line style="stroke:#304D6D;stroke-width:1.0416666666666667;" x1="8.3333" x2="237.5" y1="406.7383" y2="406.7383"/><rect fill="none" height="6.25" style="stroke:#C82930;stroke-width:1.0416666666666667;" width="6.25" x="15.625" y="415.0716"/><text fill="#EEEEEE" font-family="Consolas" font-size="11.4583" lengthAdjust="spacing" textLength="136.4583" x="32.2917" y="426.7492">#parent: HTMLElement</text><rect fill="none" height="6.25" style="stroke:#C82930;stroke-width:1.0416666666666667;" width="6.25" x="15.625" y="438.8265"/><text fill="#EEEEEE" font-family="Consolas" font-size="11.4583" lengthAdjust="spacing" textLength="112.5" x="32.2917" y="450.504">#props: IViewProps</text><rect fill="none" height="6.25" style="stroke:#C82930;stroke-width:1.0416666666666667;" width="6.25" x="15.625" y="462.5814"/><text fill="#EEEEEE" font-family="Consolas" font-size="11.4583" lengthAdjust="spacing" textLength="111.4583" x="32.2917" y="474.2589">#state: IViewState</text><rect fill="none" height="6.25" style="stroke:#C82930;stroke-width:1.0416666666666667;" width="6.25" x="15.625" y="486.3363"/><text fill="#EEEEEE" font-family="Consolas" font-size="11.4583" lengthAdjust="spacing" textLength="134.375" x="32.2917" y="498.0138">#subViews: ISubViews</text><line style="stroke:#304D6D;stroke-width:1.0416666666666667;" x1="8.3333" x2="237.5" y1="510.0911" y2="510.0911"/><ellipse cx="18.75" cy="521.5495" fill="#84BE84" rx="3.125" ry="3.125" style="stroke:#038048;stroke-width:1.0416666666666667;"/><text fill="#EEEEEE" font-family="Consolas" font-size="11.4583" lengthAdjust="spacing" textLength="85.4167" x="32.2917" y="530.102">destroy(): void</text><ellipse cx="18.75" cy="545.3044" fill="#84BE84" rx="3.125" ry="3.125" style="stroke:#038048;stroke-width:1.0416666666666667;"/><text fill="#EEEEEE" font-family="Consolas" font-size="11.4583" lengthAdjust="spacing" textLength="194.7917" x="32.2917" y="553.8569">disable(disabled?: boolean): void</text><ellipse cx="18.75" cy="569.0592" fill="#84BE84" rx="3.125" ry="3.125" style="stroke:#038048;stroke-width:1.0416666666666667;"/><text fill="#EEEEEE" font-family="Consolas" font-size="11.4583" lengthAdjust="spacing" textLength="132.2917" x="32.2917" y="577.6118">getState(): IViewState</text><ellipse cx="18.75" cy="592.8141" fill="#84BE84" rx="3.125" ry="3.125" style="stroke:#038048;stroke-width:1.0416666666666667;"/><text fill="#EEEEEE" font-family="Consolas" font-size="11.4583" lengthAdjust="spacing" textLength="193.75" x="32.2917" y="601.3667">setState(state: IViewState): void</text><!--MD5=[5a1c7f93851865495a767ea595bb6184]
class SubView--><rect codeLine="45" fill="url(#g183cwcmmvt0w00)" height="242.0898" id="SubView" rx="4.1667" ry="4.1667" style="stroke:#304D6D;stroke-width:1.0416666666666667;" width="564.5833" x="16.6667" y="687.5"/><rect fill="url(#g183cwcmmvt0w01)" height="35.3841" rx="4.1667" ry="4.1667" style="stroke:url(#g183cwcmmvt0w01);stroke-width:1.0416666666666667;" width="564.5833" x="16.6667" y="687.5"/><rect fill="url(#g183cwcmmvt0w01)" height="4.1667" style="stroke:url(#g183cwcmmvt0w01);stroke-width:1.0416666666666667;" width="564.5833" x="16.6667" y="718.7174"/><rect codeLine="45" fill="none" height="242.0898" id="SubView" rx="4.1667" ry="4.1667" style="stroke:#304D6D;stroke-width:1.0416666666666667;" width="564.5833" x="16.6667" y="687.5"/><ellipse cx="31.25" cy="705.1921" fill="#4CBC5C" rx="10.4167" ry="10.4167" style="stroke:#32A243;stroke-width:1.0416666666666667;"/><path d="M32.7962,706.3477 L33.0892,707.0638 L32.7962,707.0638 C32.487,707.0638 32.3893,707.0801 32.2754,707.1615 C32.0964,707.2591 31.9824,707.487 31.9824,707.6986 C31.9824,707.8939 32.0801,708.0729 32.2428,708.1868 C32.3568,708.2845 32.5033,708.3171 32.7962,708.3171 L34.5378,708.3171 C34.7982,708.3171 34.9609,708.2845 35.0586,708.2357 C35.2539,708.1217 35.3678,707.9102 35.3678,707.6986 C35.3678,707.487 35.2702,707.3079 35.1074,707.194 C34.9772,707.0964 34.8633,707.0638 34.5215,707.0638 L32.0313,701.0254 L29.3294,701.0254 C28.9876,701.0254 28.9063,701.0417 28.7923,701.123 C28.597,701.237 28.4993,701.4486 28.4993,701.6602 C28.4993,701.8555 28.597,702.0345 28.7598,702.1647 C28.8737,702.2624 29.0039,702.2786 29.3294,702.2786 L30.1107,702.2786 L28.1738,707.0638 C27.8646,707.0638 27.7507,707.0801 27.6367,707.1615 C27.4577,707.2591 27.3438,707.487 27.3438,707.6986 C27.3438,708.1055 27.6204,708.3171 28.1738,708.3171 L29.834,708.3171 C30.0944,708.3171 30.2572,708.2845 30.3548,708.2357 C30.5339,708.1217 30.6478,707.9102 30.6478,707.6986 C30.6478,707.487 30.5501,707.3079 30.3874,707.1777 C30.2734,707.0964 30.1595,707.0638 29.834,707.0638 L29.541,707.0638 L29.834,706.3477 L32.7962,706.3477 Z M32.2917,705.0944 L30.3223,705.0944 L31.3151,702.6855 L32.2917,705.0944 Z " fill="#000000"/><text fill="#FFFFFF" font-family="Consolas" font-size="12.5" font-style="italic" lengthAdjust="spacing" textLength="54.1667" x="50" y="709.5194">SubView</text><rect height="27.0508" style="stroke:#EEEEEE;stroke-width:1.0416666666666667;fill:none;stroke-dasharray:2.0,2.0;" width="466.6667" x="117.7083" y="684.375"/><text fill="#EEEEEE" font-family="Consolas" font-size="12.5" font-style="italic" lengthAdjust="spacing" textLength="454.1667" x="123.9583" y="702.2278">TState, TProps extends ISubViewProps, TElement extends HTMLElement</text><line style="stroke:#304D6D;stroke-width:1.0416666666666667;" x1="17.7083" x2="580.2083" y1="722.8841" y2="722.8841"/><ellipse cx="28.125" cy="734.3424" rx="3.125" ry="3.125" style="stroke:#038048;stroke-width:1.0416666666666667;fill:none;"/><text fill="#EEEEEE" font-family="Consolas" font-size="11.4583" lengthAdjust="spacing" textLength="115.625" x="41.6667" y="742.895">element: TElement</text><polygon fill="none" points="28.125,752.889,32.2917,757.0557,28.125,761.2223,23.9583,757.0557" style="stroke:#B38D22;stroke-width:1.0416666666666667;"/><text fill="#EEEEEE" font-family="Consolas" font-size="11.4583" lengthAdjust="spacing" textLength="127.0833" x="41.6667" y="766.6499">parent: HTMLElement</text><polygon fill="none" points="28.125,776.6439,32.2917,780.8105,28.125,784.9772,23.9583,780.8105" style="stroke:#B38D22;stroke-width:1.0416666666666667;"/><text fill="#EEEEEE" font-family="Consolas" font-size="11.4583" lengthAdjust="spacing" textLength="78.125" x="41.6667" y="790.4048">props: TProps</text><polygon fill="none" points="28.125,800.3988,32.2917,804.5654,28.125,808.7321,23.9583,804.5654" style="stroke:#B38D22;stroke-width:1.0416666666666667;"/><text fill="#EEEEEE" font-family="Consolas" font-size="11.4583" lengthAdjust="spacing" textLength="155.2083" x="41.6667" y="814.1596">state?: TState | undefined</text><line style="stroke:#304D6D;stroke-width:1.0416666666666667;" x1="17.7083" x2="580.2083" y1="826.237" y2="826.237"/><ellipse cx="28.125" cy="837.6953" fill="#84BE84" rx="3.125" ry="3.125" style="stroke:#038048;stroke-width:1.0416666666666667;"/><text fill="#EEEEEE" font-family="Consolas" font-size="11.4583" lengthAdjust="spacing" textLength="85.4167" x="41.6667" y="846.2479">destroy(): void</text><ellipse cx="28.125" cy="861.4502" fill="#84BE84" rx="3.125" ry="3.125" style="stroke:#038048;stroke-width:1.0416666666666667;"/><text fill="#EEEEEE" font-family="Consolas" font-size="11.4583" lengthAdjust="spacing" textLength="194.7917" x="41.6667" y="870.0027">disable(disabled?: boolean): void</text><ellipse cx="28.125" cy="885.2051" fill="#84BE84" rx="3.125" ry="3.125" style="stroke:#038048;stroke-width:1.0416666666666667;"/><text fill="#EEEEEE" font-family="Consolas" font-size="11.4583" lengthAdjust="spacing" textLength="179.1667" x="41.6667" y="893.7576">getState(): TState | undefined</text><ellipse cx="28.125" cy="908.96" fill="#84BE84" rx="3.125" ry="3.125" style="stroke:#038048;stroke-width:1.0416666666666667;"/><text fill="#EEEEEE" font-family="Consolas" font-size="11.4583" lengthAdjust="spacing" textLength="168.75" x="41.6667" y="917.5125">setState(state: TState): void</text><!--MD5=[cbbf82bdaf40d17226f02fa530acc218]
reverse link Observable to SubView--><path d="M428.125,598.574 C428.125,598.574 428.125,687.4031 428.125,687.4031 " fill="none" id="Observable-backto-SubView" style="stroke:#446E9B;stroke-width:3.125;"/><polygon fill="none" points="420.8333,598.575,428.125,577.7406,435.4167,598.574,420.8333,598.575" style="stroke:#446E9B;stroke-width:3.125;"/><!--MD5=[e3363ae2a0d66bf7bf5a51e007a02d49]
reverse link Observable to Model--><path codeLine="56" d="M696.1073,492.7083 C696.1073,492.7083 711.2052,492.7083 711.2052,492.7083 " fill="none" id="Observable-backto-Model" style="stroke:#446E9B;stroke-width:3.125;"/><polygon fill="none" points="696.1073,500,675.274,492.7083,696.1073,485.4167,696.1073,500" style="stroke:#446E9B;stroke-width:3.125;"/><!--MD5=[f6c28b548f263e1093926fc03bfd3896]
link View to Observable--><path codeLine="57" d="M238.6896,492.7083 C238.6896,492.7083 254.0021,492.7083 254.0021,492.7083 " fill="none" id="View-to-Observable" style="stroke:#446E9B;stroke-width:3.125;"/><polygon fill="none" points="254.0021,485.4167,274.8354,492.7083,254.0021,500,254.0021,485.4167" style="stroke:#446E9B;stroke-width:3.125;"/><!--MD5=[f9623b885a35beec45b4bb80d1a81c16]
reverse link View to SubView--><path codeLine="58" d="M127.6042,626.6031 C127.6042,626.6031 127.6042,687.2646 127.6042,687.2646 " fill="none" id="View-backto-SubView" style="stroke:#446E9B;stroke-width:3.125;"/><polygon fill="#446E9B" points="127.6042,613.0615,123.4375,619.3115,127.6042,625.5615,131.7708,619.3115,127.6042,613.0615" style="stroke:#446E9B;stroke-width:3.125;"/><!--MD5=[757302d792939ab5116a13a77b6fdf88]
reverse link Presenter to Model--><path codeLine="59" d="M566.1458,310.425 C566.1458,310.425 566.1458,365.625 566.1458,365.625 C566.1458,365.625 635.3354,365.625 711.0115,365.625 " fill="none" id="Presenter-backto-Model" style="stroke:#446E9B;stroke-width:3.125;"/><polygon fill="#446E9B" points="566.1458,296.8833,561.9792,303.1333,566.1458,309.3833,570.3125,303.1333,566.1458,296.8833" style="stroke:#446E9B;stroke-width:3.125;"/><!--MD5=[94ac34da17b748a109eb6ac0e62bba58]
reverse link Presenter to View--><path codeLine="60" d="M458.8542,310.6208 C458.8542,310.6208 458.8542,389.5833 458.8542,389.5833 C458.8542,389.5833 336.099,389.5833 238.9979,389.5833 " fill="none" id="Presenter-backto-View" style="stroke:#446E9B;stroke-width:3.125;"/><polygon fill="#446E9B" points="458.8542,297.0792,454.6875,303.3292,458.8542,309.5792,463.0208,303.3292,458.8542,297.0792" style="stroke:#446E9B;stroke-width:3.125;"/><!--MD5=[a2deedc6aae62fcb1717fe36065759a5]
@startuml
!theme spacelab
skinparam defaultFontName Consolas
skinparam linetype ortho

abstract class Observable<TData> {
    -#observers: TObserverMethod<TData>[]
    +addObserver(observer: TObserverMethod<TData>): void
    +removeObserver(observer: TObserverMethod<TData>): void
    +getObserverNames(): string[]
    #notifyObservers(data: TData): void
}
class Presenter {
    -#parent: HTMLElement
    -#props: IProps
    -#state?: IState | undefined
    -#model?: Model | undefined
    -#view?: View | undefined
    +destroy(): void
    +disable(disabled?: boolean): void
    +restart(props?: Partial<IProps> | undefined): void
    +update(data?: IData | undefined): void
    +getState(): IState | undefined
}
class Model {
    -#props: IModelProps
    -#state: IModelState
    +getState(): IModelState
    +getSelectedPoints(): TCurrentPoint[]
    +getPointsMap(): [position: string, value: TPointValue][]
    +selectPointByUnknownPosition(positionRatio: number): void
    +selectPointByPosition(__0: [string, number]): void
    +selectPointByValue(__0: [string, TPointValue]): void
    +selectPointLimits(id: string): void
}
class View {
    -#parent: HTMLElement
    -#props: IViewProps
    -#state: IViewState
    -#subViews: ISubViews
    +destroy(): void
    +disable(disabled?: boolean): void
    +getState(): IViewState
    +setState(state: IViewState): void
}
abstract class SubView<TState, TProps extends ISubViewProps, TElement extends HTMLElement> extends Observable {
    +element: TElement
    #parent: HTMLElement
    #props: TProps
    #state?: TState | undefined
    +destroy(): void
    +disable(disabled?: boolean): void
    +getState(): TState | undefined
    +setState(state: TState): void
}

Observable <|-right- Model
Observable <|-left- View
View *- - SubView
Presenter *- - Model
Presenter *- - View
@enduml

@startuml



skinparam backgroundColor transparent
skinparam useBetaStyle false







skinparam defaultFontName       "Verdana"
skinparam defaultFontSize       12
skinparam dpi                   100
skinparam shadowing             false
skinparam roundcorner           8
skinparam ParticipantPadding    40
skinparam BoxPadding            40
skinparam Padding               5
skinparam ArrowColor            #333333
skinparam stereotype {
    CBackgroundColor #b8b8b8
    CBorderColor #6b6b6b
    ABackgroundColor #4cbc5c
    ABorderColor #32a243
    IBackgroundColor #dc4e4d
    IBorderColor #900100
    EBackgroundColor #e19e4d
    EBorderColor #945200
    NBackgroundColor #70b8f7
    NBorderColor #246baa
}
skinparam title {
	FontColor	                 #304d6d
	BorderColor	                 #6b6b6b
	FontSize	    	         20
	BorderRoundCorner            8
	BorderThickness 	         1
	BackgroundColor              #b8b8b8-#999999
}

skinparam legend {
	BackgroundColor #999999
	BorderColor #6b6b6b
	FontColor #eeeeee
}

skinparam swimlane {
	BorderColor #3399f3
	BorderThickness 2
	TitleBackgroundColor  #b8b8b8-#999999
	TitleFontColor #304d6d
}


skinparam activity {
		FontColor #ffffff
	BorderColor #304d6d
	BackgroundColor #7c9ab9-#304d6d
	BarColor #3cb521
	StartColor #3399f3
	EndColor #3399f3
	DiamondBackgroundColor #b8b8b8-#6b6b6b
  	DiamondBorderColor #6b6b6b
  	DiamondFontColor #ffffff
}


skinparam participant {
		FontColor #ffffff
	BorderColor #304d6d
	BackgroundColor #7c9ab9-#304d6d
	ParticipantBorderThickness 2
}


skinparam actor {
		FontColor #ffffff
	BorderColor #304d6d
	BackgroundColor #7c9ab9-#304d6d
}


skinparam arrow {
	Thickness 3
	Color #446e9b
	FontColor #ffffff
}


skinparam sequence {
	BorderColor #446e9b
	TitleFontColor #446e9b
	BackgroundColor transparent
	StartColor #446e9b
	EndColor #446e9b
	BoxBackgroundColor transparent
	BoxBorderColor #333333
	BoxFontColor $DARk
	LifeLineBorderColor #999999
	LifeLineBorderThickness 2
	LifeLineBackgroundColor #6b6b6b-#6b6b6b
	GroupBorderColor #333333
	GroupFontColor #333333
	GroupHeaderFontColor #3399f3
	GroupBackgroundColor #6b6b6b-#6b6b6b
	GroupHeaderBackgroundColor transparent
	DividerBackgroundColor #707070-#242424
    DividerBorderColor #333333
    DividerBorderThickness 2
    DividerFontColor #eeeeee
	ReferenceBackgroundColor transparent
	ReferenceBorderColor #333333
	ReferenceFontColor #333333
	ReferenceHeaderFontColor #3399f3
	ReferenceHeaderBackgroundColor #6b6b6b-#6b6b6b
}


skinparam partition {
	BorderColor #446e9b
	FontColor #446e9b
	BackgroundColor transparent
}


skinparam collections {
		FontColor #ffffff
	BorderColor #304d6d
	BackgroundColor #7c9ab9-#304d6d
}


skinparam control {
		FontColor #ffffff
	BorderColor #304d6d
	BackgroundColor #7c9ab9-#304d6d
}


skinparam entity {
		FontColor #ffffff
	BorderColor #304d6d
	BackgroundColor #7c9ab9-#304d6d
}


skinparam boundary {
		FontColor #ffffff
	BorderColor #304d6d
	BackgroundColor #7c9ab9-#304d6d
}


skinparam agent {
	BackgroundColor #d47500
	BorderColor #e19e4d
	FontColor #333333
}


skinparam note {
	BorderThickness 1
	BackgroundColor #70b8f7-#246baa
	BorderColor #246baa
	FontColor #ffffff
}


skinparam artifact {
	BackgroundColor #333333
	BorderColor #242424
	FontColor #eeeeee
}


skinparam component {
		FontColor #ffffff
	BorderColor #304d6d
	BackgroundColor #7c9ab9-#304d6d
}


skinparam interface {
	BackgroundColor  #900100
	BorderColor  #cd0200
	FontColor #333333
}


skinparam storage {
	BackgroundColor #d47500
  	BorderColor #945200
	FontColor #ffffff
}


skinparam node {
	BackgroundColor  #999999
	BorderColor #eeeeee
	FontColor #eeeeee
}


skinparam cloud {
	BackgroundColor #F2FCFE-#eeeeee
	BorderColor #F2FCFE
	FontColor #333333
}


skinparam database {
		FontColor #ffffff
	BorderColor #304d6d
	BackgroundColor #7c9ab9-#304d6d
}


skinparam class {
		FontColor #ffffff
	BorderColor #304d6d
	BackgroundColor #7c9ab9-#304d6d
	FontColor #ffffff
	HeaderBackgroundColor #7c9ab9-#446e9b
	StereotypeFontColor #eeeeee
	BorderThickness 1
	AttributeFontColor #eeeeee
	AttributeFontSize 11
}


skinparam object {
		FontColor #ffffff
	BorderColor #304d6d
	BackgroundColor #7c9ab9-#304d6d
	StereotypeFontColor #333333
	BorderThickness 1
	AttributeFontColor #ffffff
	AttributeFontSize 11
}


skinparam usecase {
		FontColor #ffffff
	BorderColor #304d6d
	BackgroundColor #7c9ab9-#304d6d
	BorderThickness 2
	StereotypeFontColor #446e9b
}


skinparam rectangle {
		FontColor #ffffff
	BorderColor #304d6d
	BackgroundColor #7c9ab9-#304d6d
	BackgroundColor #b8b8b8-#6b6b6b
	BorderThickness 2
	StereotypeFontColor #446e9b
}


skinparam package {
	BackgroundColor #b8b8b8-#6b6b6b
  	BorderColor #446e9b
	FontColor #446e9b
	BorderThickness 2
}


skinparam folder {
	BackgroundColor #b8b8b8-#6b6b6b
  	BorderColor #d47500
	FontColor #d47500
	BorderThickness 2
}


skinparam frame {
	BackgroundColor #b8b8b8-#6b6b6b
  	BorderColor #3399f3
	FontColor #3399f3
	BorderThickness 2
}


skinparam state {
		FontColor #ffffff
	BorderColor #304d6d
	BackgroundColor #7c9ab9-#304d6d
	StartColor #3399f3
	EndColor #3399f3
	AttributeFontColor #ffffff
	AttributeFontSize 11
}


skinparam queue {
		FontColor #ffffff
	BorderColor #304d6d
	BackgroundColor #7c9ab9-#304d6d
}


skinparam card {
	BackgroundColor #70b8f7-#246baa
	BorderColor #246baa
	FontColor #ffffff
}


skinparam file {
	BackgroundColor #6b6b6b-#6b6b6b
	BorderColor #eeeeee
	FontColor #eeeeee
}


skinparam defaultFontName Consolas
skinparam linetype ortho

abstract class Observable<TData> {
    -#observers: TObserverMethod<TData>[]
    +addObserver(observer: TObserverMethod<TData>): void
    +removeObserver(observer: TObserverMethod<TData>): void
    +getObserverNames(): string[]
    #notifyObservers(data: TData): void
}
class Presenter {
    -#parent: HTMLElement
    -#props: IProps
    -#state?: IState | undefined
    -#model?: Model | undefined
    -#view?: View | undefined
    +destroy(): void
    +disable(disabled?: boolean): void
    +restart(props?: Partial<IProps> | undefined): void
    +update(data?: IData | undefined): void
    +getState(): IState | undefined
}
class Model {
    -#props: IModelProps
    -#state: IModelState
    +getState(): IModelState
    +getSelectedPoints(): TCurrentPoint[]
    +getPointsMap(): [position: string, value: TPointValue][]
    +selectPointByUnknownPosition(positionRatio: number): void
    +selectPointByPosition(__0: [string, number]): void
    +selectPointByValue(__0: [string, TPointValue]): void
    +selectPointLimits(id: string): void
}
class View {
    -#parent: HTMLElement
    -#props: IViewProps
    -#state: IViewState
    -#subViews: ISubViews
    +destroy(): void
    +disable(disabled?: boolean): void
    +getState(): IViewState
    +setState(state: IViewState): void
}
abstract class SubView<TState, TProps extends ISubViewProps, TElement extends HTMLElement> extends Observable {
    +element: TElement
    #parent: HTMLElement
    #props: TProps
    #state?: TState | undefined
    +destroy(): void
    +disable(disabled?: boolean): void
    +getState(): TState | undefined
    +setState(state: TState): void
}

Observable <|-right- Model
Observable <|-left- View
View *- - SubView
Presenter *- - Model
Presenter *- - View
@enduml

PlantUML version 1.2021.7(Sun May 23 12:40:07 UTC 2021)
(GPL source distribution)
Java Runtime: Java(TM) SE Runtime Environment
JVM: Java HotSpot(TM) 64-Bit Server VM
Default Encoding: UTF-8
Language: en
Country: US
--></g></svg>