<?xml version="1.0" standalone="no"?>
<!DOCTYPE svg PUBLIC "-//W3C//DTD SVG 20010904//EN"
 "http://www.w3.org/TR/2001/REC-SVG-20010904/DTD/svg10.dtd">
<svg version="1.0" xmlns="http://www.w3.org/2000/svg"
 width="138.000000pt" height="138.000000pt" viewBox="0 0 138.000000 138.000000"
 preserveAspectRatio="xMidYMid meet">
<metadata>
Created by potrace 1.14, written by Peter Selinger 2001-2017
</metadata>
<g transform="translate(0.000000,138.000000) scale(0.100000,-0.100000)"
fill="#000000" stroke="none">
<path d="M194 1331 c-59 -27 -109 -75 -138 -133 l-26 -52 0 -455 c0 -422 2
-459 19 -497 27 -59 75 -109 133 -138 l52 -26 456 0 456 0 52 26 c58 29 106
79 133 138 17 38 19 75 19 497 l0 455 -26 52 c-29 58 -79 106 -138 133 -38 17
-75 19 -496 19 -421 0 -458 -2 -496 -19z m971 -47 c55 -30 94 -70 119 -124 20
-44 21 -59 21 -470 0 -411 -1 -426 -21 -470 -27 -57 -67 -97 -124 -124 -44
-20 -59 -21 -470 -21 -411 0 -426 1 -470 21 -57 27 -97 67 -124 124 -20 44
-21 59 -21 475 0 421 0 431 21 470 41 75 102 122 179 136 22 4 222 6 445 6
394 -2 406 -3 445 -23z"/>
<path d="M252 1229 c-50 -25 -98 -80 -113 -129 -6 -22 -9 -179 -7 -431 l3
-395 28 -42 c15 -23 46 -54 69 -69 l42 -28 416 0 416 0 42 28 c23 15 54 46 69
69 l28 41 3 219 c2 133 -1 218 -6 218 -6 0 -12 -82 -14 -197 -3 -178 -6 -202
-25 -238 -24 -46 -54 -75 -103 -101 -32 -18 -63 -19 -395 -19 -198 0 -377 4
-399 8 -52 11 -132 91 -143 143 -10 51 -10 717 0 768 11 52 91 132 143 143 22
4 198 8 392 8 275 0 352 3 352 13 0 9 -82 12 -377 12 -365 0 -380 -1 -421 -21z"/>
<path d="M642 1007 c-12 -13 -22 -31 -22 -40 0 -15 -17 -17 -165 -17 -103 0
-165 -4 -165 -10 0 -6 62 -10 165 -10 153 0 165 -1 165 -18 0 -58 114 -86 158
-39 12 13 22 31 22 40 0 15 16 17 145 17 90 0 145 4 145 10 0 6 -55 10 -145
10 -134 0 -145 1 -145 18 0 58 -114 86 -158 39z m112 -23 c20 -20 20 -68 0
-88 -8 -9 -28 -16 -44 -16 -16 0 -36 7 -44 16 -20 20 -20 68 0 88 8 9 28 16
44 16 16 0 36 -7 44 -16z"/>
<path d="M1230 920 c0 -16 5 -30 10 -30 6 0 10 14 10 30 0 17 -4 30 -10 30 -5
0 -10 -13 -10 -30z"/>
<path d="M1230 800 c0 -27 5 -50 10 -50 6 0 10 23 10 50 0 28 -4 50 -10 50 -5
0 -10 -22 -10 -50z"/>
<path d="M502 747 c-12 -13 -22 -31 -22 -40 0 -15 -13 -17 -95 -17 -57 0 -95
-4 -95 -10 0 -6 38 -10 95 -10 85 0 95 -2 95 -18 0 -58 114 -86 158 -39 12 13
22 31 22 40 0 13 9 17 35 17 27 0 35 -4 35 -18 0 -58 114 -86 158 -39 12 13
22 31 22 40 0 15 12 17 90 17 53 0 90 4 90 10 0 6 -37 10 -90 10 -80 0 -90 2
-90 18 0 58 -114 86 -158 39 -12 -13 -22 -31 -22 -40 0 -13 -9 -17 -35 -17
-27 0 -35 4 -35 18 0 58 -114 86 -158 39z m112 -23 c20 -20 20 -68 0 -88 -8
-9 -28 -16 -44 -16 -36 0 -60 24 -60 60 0 36 24 60 60 60 16 0 36 -7 44 -16z
m250 0 c20 -20 20 -68 0 -88 -8 -9 -28 -16 -44 -16 -16 0 -36 7 -44 16 -20 20
-20 68 0 88 8 9 28 16 44 16 16 0 36 -7 44 -16z"/>
<path d="M402 487 c-12 -13 -22 -31 -22 -40 0 -13 -9 -17 -45 -17 -25 0 -45
-4 -45 -10 0 -5 20 -10 45 -10 37 0 45 -3 45 -18 0 -58 114 -86 158 -39 12 13
22 31 22 40 0 12 9 17 30 17 22 0 30 -5 30 -18 0 -58 114 -86 158 -39 12 13
22 31 22 40 0 12 9 17 30 17 22 0 30 -5 30 -18 0 -58 114 -86 158 -39 12 13
22 31 22 40 0 11 8 17 25 17 14 0 25 5 25 10 0 6 -11 10 -25 10 -18 0 -25 5
-25 18 0 58 -114 86 -158 39 -12 -13 -22 -31 -22 -40 0 -12 -9 -17 -30 -17
-22 0 -30 5 -30 18 0 58 -114 86 -158 39 -12 -13 -22 -31 -22 -40 0 -12 -9
-17 -30 -17 -22 0 -30 5 -30 18 0 58 -114 86 -158 39z m112 -23 c20 -20 20
-68 0 -88 -8 -9 -28 -16 -44 -16 -16 0 -36 7 -44 16 -20 20 -20 68 0 88 8 9
28 16 44 16 16 0 36 -7 44 -16z m240 0 c20 -20 20 -68 0 -88 -8 -9 -28 -16
-44 -16 -36 0 -60 24 -60 60 0 36 24 60 60 60 16 0 36 -7 44 -16z m240 0 c20
-20 20 -68 0 -88 -8 -9 -28 -16 -44 -16 -36 0 -60 24 -60 60 0 36 24 60 60 60
16 0 36 -7 44 -16z"/>
</g>
</svg>
